nColumns=19
nRows=69
DataType=double
version=3
OpenSimVersion=4.1
endheader
time	ground_force_1_vx	ground_force_1_vy	ground_force_1_vz	ground_force_1_px	ground_force_1_py	ground_force_1_pz	ground_force_1_mx	ground_force_1_my	ground_force_1_mz	ground_force_2_vx	ground_force_2_vy	ground_force_2_vz	ground_force_2_px	ground_force_2_py	ground_force_2_pz	ground_force_2_mx	ground_force_2_my	ground_force_2_mz
2.925	0	0	0	0.192336	0	-0.208257	0	0	0	-88.6316	118.173	-17.6607	1.09709	-0	-0.394101	0	-0.752301	0
2.93	0	0	0	0.216844	0	-0.205697	0	0	0	-192.374	357.979	22.6109	0.928853	0	-0.429836	0	2.80296	0
2.935	0	0	0	0.238494	0	-0.204615	0	0	0	-312.149	720.564	92.1662	0.9375	0	-0.404734	0	6.92267	0
2.94	0	0	0	0.261857	0	-0.20289	0	0	0	-401.839	1172.48	193.994	0.940319	0	-0.384396	0	9.4464	0
2.945	0	0	0	0.287206	0	-0.200359	0	0	0	-425.829	1673.86	299.003	0.939935	0	-0.367205	0	2.60243	0
2.95	0	0	0	0.31329	0	-0.197542	0	0	0	-408.782	2205.87	354.496	0.930145	0	-0.353626	0	-23.934	0
2.955	0	0	0	0.33886	0	-0.194963	0	0	0	-401.289	2717.04	315.096	0.911296	0	-0.343377	0	-60.7132	0
2.96	0	0	0	0.363066	0	-0.192981	0	0	0	-399.806	3114.15	163.871	0.895504	0	-0.33669	0	-80.137	0
2.965	0	0	0	0.386768	0	-0.191166	0	0	0	-399.248	3334.83	-63.3214	0.883373	0	-0.333325	0	-66.5784	0
2.97	0	0	0	0.410448	0	-0.18915	0	0	0	-404.139	3385.08	-288.419	0.866481	0	-0.332695	0	-24.3164	0
2.975	0	0	0	0.431908	0	-0.188361	0	0	0	-382.628	3319.87	-427.806	0.842828	0	-0.333356	0	22.5862	0
2.98	0	0	0	0.4546	0	-0.186945	0	0	0	-311.768	3206.39	-437.421	0.812461	0	-0.333383	0	46.7228	0
2.985	0	0	0	0.479193	0	-0.185251	0	0	0	-197.016	3082.66	-340.835	0.775715	0	-0.331974	0	38.3788	0
2.99	0	0	0	0.505145	0	-0.184229	0	0	0	-51.9421	2953.38	-208.023	0.737756	0	-0.329815	0	8.01576	0
2.995	0	0	0	0.532709	0	-0.184606	0	0	0	103.833	2803.78	-100.963	0.701376	0	-0.328114	0	-21.9856	0
3	0	0	0	0.563726	0	-0.184393	0	0	0	250.616	2613.01	-44.3799	0.66555	0	-0.327399	0	-35.5653	0
3.005	0	0	0	0.597285	0	-0.184257	0	0	0	381.759	2366.51	-26.9785	0.628769	0	-0.327627	0	-34.9072	0
3.01	0	0	0	0.633445	0	-0.183861	0	0	0	493.96	2062.08	-22.4226	0.584541	0	-0.328521	0	-28.002	0
3.015	0	0	0	0.671912	0	-0.182897	0	0	0	577.823	1705.08	-12.0873	0.521795	0	-0.330517	0	-21.6966	0
3.02	0	0	0	0.712339	0	-0.18218	0	0	0	625.684	1313.05	7.41212	0.432323	0	-0.333961	0	-24.2494	0
3.025	0	0	0	0.754806	0	-0.181349	0	0	0	617.694	921.368	22.8165	0.308229	0	-0.339362	0	-34.2232	0
3.03	0	0	0	0.798937	0	-0.180401	0	0	0	541.079	566.389	13.6339	0.140612	0	-0.347668	0	-32.5593	0
3.035	0	0	0	0.844403	0	-0.179628	0	0	0	418.759	282.849	-29.2591	-0.054276	0	-0.362025	0	9.92411	0
3.04	0	0	0	0.891373	0	-0.178656	0	0	0	284.751	94.5497	-88.1667	0.177577	0	-0.346797	0	93.9782	0
3.045	0	0	0	0.937327	0	-0.178711	0	0	0	0	0	0	0.256551	0	-0.340703	0	0	0
3.05	0	0	0	0.982091	0	-0.178165	0	0	0	0	0	0	0.228155	0	-0.342589	0	0	0
3.055	0	0	0	1.026	0	-0.17847	0	0	0	0	0	0	0.200807	0	-0.343453	0	0	0
3.06	0	0	0	1.06751	0	-0.181199	0	0	0	0	0	0	0.176698	0	-0.343772	0	0	0
3.065	0	0	0	1.10641	0	-0.183545	0	0	0	0	0	0	0.157281	0	-0.341384	0	0	0
3.07	0	0	0	1.14314	0	-0.186754	0	0	0	0	0	0	0.136949	0	-0.337012	0	0	0
3.075	0	0	0	1.17722	0	-0.190145	0	0	0	0	0	0	0.119537	0	-0.334003	0	0	0
3.08	0	0	0	1.20821	0	-0.193444	0	0	0	0	0	0	0.107121	0	-0.330094	0	0	0
3.085	0	0	0	1.23653	0	-0.197042	0	0	0	0	0	0	0.098351	0	-0.325976	0	0	0
3.09	0	0	0	1.2621	0	-0.200678	0	0	0	0	0	0	0.089912	0	-0.321624	0	0	0
3.095	0	0	0	1.28413	0	-0.204337	0	0	0	0	0	0	0.080679	0	-0.318064	0	0	0
3.1	0	0	0	1.30246	0	-0.208282	0	0	0	0	0	0	0.073441	0	-0.31453	0	0	0
3.105	0	0	0	1.31669	0	-0.211773	0	0	0	0	0	0	0.067914	0	-0.314828	0	0	0
3.11	0	0	0	1.32676	0	-0.214648	0	0	0	0	0	0	0.066271	0	-0.313856	0	0	0
3.115	0	0	0	1.33291	0	-0.216405	0	0	0	0	0	0	0.067607	0	-0.31381	0	0	0
3.12	0	0	0	1.33529	0	-0.216857	0	0	0	0	0	0	0.072023	0	-0.314622	0	0	0
3.125	0	0	0	1.33399	0	-0.215727	0	0	0	0	0	0	0.080214	0	-0.314375	0	0	0
3.13	0	0	0	1.32879	0	-0.213043	0	0	0	0	0	0	0.090629	0	-0.314898	0	0	0
3.135	0	0	0	1.31984	0	-0.209562	0	0	0	0	0	0	0.103147	0	-0.314634	0	0	0
3.14	0	0	0	1.30737	0	-0.205924	0	0	0	0	0	0	0.117076	0	-0.316163	0	0	0
3.145	0	0	0	1.29141	0	-0.202638	0	0	0	0	0	0	0.129994	0	-0.315895	0	0	0
3.15	0	0	0	1.27266	0	-0.19973	0	0	0	0	0	0	0.14975	0	-0.318758	0	0	0
3.155	0	0	0	1.25115	0	-0.19797	0	0	0	0	0	0	0.167681	0	-0.320264	0	0	0
3.16	0	0	0	1.2271	0	-0.196868	0	0	0	0	0	0	0.186927	0	-0.322478	0	0	0
3.165	0	0	0	1.20087	0	-0.196776	0	0	0	0	0	0	0.206998	0	-0.325143	0	0	0
3.17	-83.2629	89.9298	37.1578	1.12849	-0	-0.188605	0	0.451996	0	0	0	0	0.228487	0	-0.327601	0	0	0
3.175	-166.045	299.48	13.7389	0.952684	0	-0.165288	0	-2.24552	0	0	0	0	0.250435	0	-0.33086	0	0	0
3.18	-271.472	624.624	-43.2964	0.950829	0	-0.184665	0	-6.53597	0	0	0	0	0.272997	0	-0.334594	0	0	0
3.185	-361.649	1043.61	-139.42	0.948713	0	-0.198716	0	-14.0298	0	0	0	0	0.296083	0	-0.338274	0	0	0
3.19	-396.084	1527.94	-255.495	0.944905	0	-0.210756	0	-14.5026	0	0	0	0	0.319234	0	-0.343026	0	0	0
3.195	-383.832	2055.17	-348.821	0.935257	0	-0.220884	0	8.58652	0	0	0	0	0.342763	0	-0.34611	0	0	0
3.2	-375.173	2572.59	-373.796	0.920899	0	-0.228318	0	49.042	0	0	0	0	0.366341	0	-0.349282	0	0	0
3.205	-397.895	2994.7	-307.549	0.907722	0	-0.232281	0	77.8373	0	0	0	0	0.390039	0	-0.353245	0	0	0
3.21	-441.815	3262.12	-165.219	0.895213	0	-0.233091	0	76.2861	0	0	0	0	0.413678	0	-0.35587	0	0	0
3.215	-470.271	3381.8	8.34084	0.879158	0	-0.232002	0	41.734	0	0	0	0	0.437878	0	-0.358502	0	0	0
3.22	-453.027	3391.28	155.185	0.855114	0	-0.230325	0	-9.16521	0	0	0	0	0.46312	0	-0.35918	0	0	0
3.225	-382.49	3325.97	220.123	0.821394	0	-0.229359	0	-44.2224	0	0	0	0	0.488789	0	-0.362667	0	0	0
3.23	-262.521	3223.63	186.775	0.782015	0	-0.229819	0	-46.4744	0	0	0	0	0.516545	0	-0.36544	0	0	0
3.235	-114.726	3118.49	91.0018	0.742995	0	-0.231666	0	-23.7967	0	0	0	0	0.54547	0	-0.368645	0	0	0
3.24	37.0469	3004.73	-7.48572	0.707669	0	-0.233544	0	7.80198	0	0	0	0	0.575772	0	-0.368692	0	0	0
3.245	177.559	2852.6	-69.3239	0.675799	0	-0.234593	0	32.0042	0	0	0	0	0.610094	0	-0.370213	0	0	0
3.25	299.786	2647.46	-90.9425	0.645135	0	-0.234901	0	40.5372	0	0	0	0	0.645908	0	-0.370989	0	0	0
3.255	409.746	2384.2	-90.3021	0.612137	0	-0.234855	0	40.672	0	0	0	0	0.683324	0	-0.371797	0	0	0
3.26	508.469	2057.33	-83.5559	0.570032	0	-0.234618	0	41.519	0	0	0	0	0.723301	0	-0.372693	0	0	0
3.265	580.691	1669.52	-75.6395	0.508804	0	-0.234588	0	45.3642	0	0	0	0	0.765261	0	-0.372876	0	0	0
